<svg xmlns="http://www.w3.org/2000/svg" width="61" height="61" viewBox="0 0 61 61">
  <g id="logo" transform="translate(0.5 0.5)">
    <path id="Rectangle_1" data-name="Rectangle 1" d="M11.719,0H48.281A11.719,11.719,0,0,1,60,11.719V48.281A11.719,11.719,0,0,1,48.281,60H11.719A11.719,11.719,0,0,1,0,48.281V11.719A11.719,11.719,0,0,1,11.719,0Z" fill="#fff" stroke="#e4e4e4" stroke-width="1"/>
    <path id="Rectangle_8" data-name="Rectangle 8" d="M9.375,0H45.938a9.375,9.375,0,0,1,9.375,9.375V32.813a9.375,9.375,0,0,1-9.375,9.375H9.375A9.375,9.375,0,0,1,0,32.813V9.375A9.375,9.375,0,0,1,9.375,0Z" transform="translate(2.344 2.344)"/>
    <path id="Path_34" data-name="Path 34" d="M6.883-42.813l-.445.25a2.74,2.74,0,0,1-1.239.318,1.492,1.492,0,0,1-1.657-1.414c0-.846.719-1.4,1.691-1.4a2.8,2.8,0,0,1,1.6.5v-1.062a3.379,3.379,0,0,0-1.678-.406A2.517,2.517,0,0,0,2.33-43.645a2.438,2.438,0,0,0,2.718,2.354,3.7,3.7,0,0,0,1.835-.46Zm6-.839a2.5,2.5,0,0,0-2.677-2.374,2.5,2.5,0,0,0-2.684,2.374,2.5,2.5,0,0,0,2.663,2.361A2.489,2.489,0,0,0,12.887-43.652Zm-1.205.027a1.39,1.39,0,0,1-1.472,1.4,1.379,1.379,0,0,1-1.472-1.407A1.349,1.349,0,0,1,10.2-45.045,1.355,1.355,0,0,1,11.682-43.625Zm6.675-2.341h-1.15v2.719l-2.5-2.719H13.647v4.614H14.8v-2.855l2.581,2.855h.973Zm5.751,0h-1.15v2.719l-2.5-2.719H19.4v4.614h1.157v-2.855l2.581,2.855h.973ZM28.593-42.2H26.327v-1.109h2.116v-.866H26.327v-.934h2.218v-.859h-3.4v4.614h3.444Zm5.162-.616-.445.25a2.74,2.74,0,0,1-1.239.318,1.492,1.492,0,0,1-1.657-1.414c0-.846.719-1.4,1.691-1.4a2.8,2.8,0,0,1,1.6.5v-1.062a3.379,3.379,0,0,0-1.677-.406A2.517,2.517,0,0,0,29.2-43.645a2.438,2.438,0,0,0,2.718,2.354,3.7,3.7,0,0,0,1.835-.46ZM38.9-45.965h-4.56v.866h1.691v3.748h1.185V-45.1H38.9Z" transform="translate(11.523 96.651)" fill="#e4002b"/>
    <path id="Union_4" data-name="Union 4" d="M.75,6.675,1.5,3.56a.657.657,0,0,0-.75-.623S0,2.938,0,2.315H2.251s.75,0,.75.624-.75,2.493-.75,3.115.75.622.75.621H3.75S3.75,7.3,1.5,7.3A.657.657,0,0,1,.75,6.675ZM1.668.933a.934.934,0,1,1,.934.935A.934.934,0,0,1,1.668.933Z" transform="translate(9.579 48.063)" fill="#e4002b"/>
    <g id="Group_3692" data-name="Group 3692" transform="translate(6.576 6.563)">
      <g id="Group_3691" data-name="Group 3691" transform="translate(0)">
        <g id="Group_3688" data-name="Group 3688">
          <path id="Path_548" data-name="Path 548" d="M119.647,54.871l-3.508,6.17h3.508v-6.17" transform="translate(-90.696 -45.595)" fill="#e71d2e"/>
          <path id="Path_549" data-name="Path 549" d="M37.555,41.389h-3.12L32.361,45.13h2.65l-.258.8a5.254,5.254,0,0,1-4.428,3.448,5.342,5.342,0,0,1-5.375-5.632c0-2.99,1.867-5.539,5.262-5.539.126,0,.249.005.37.009h5.273c-1.144-2.04-1.56-2.768-2.705-4.78-1.179,0-1.874-.038-3.2-.038A10.406,10.406,0,1,0,40.017,45.82c-1.56-2.811-2.462-4.432-2.462-4.432" transform="translate(-19.718 -29.788)" fill="#fff"/>
          <path id="Path_550" data-name="Path 550" d="M159.269,39.564a1.042,1.042,0,0,1,1.149-1.167h3.663l-2.721-4.864H159.7a5.845,5.845,0,0,0-6.018,5.694c0,3.386,5.557,6.376,5.557,8.267,0,1.288-.806,1.749-1.955,1.749h-3.4l2.269,4.068.494.892h2.62a6.165,6.165,0,0,0,5.911-5.993C165.181,43.494,159.269,41.259,159.269,39.564Z" transform="translate(-118.334 -29.888)" fill="#fff"/>
          <path id="Path_551" data-name="Path 551" d="M116.6,93.071h-2.176v4.712H110V93.071h-6.965l2.736,4.9s1.77,3.3,6.646,3.3c6.644,0,8.722-.034,8.722-.034l-1.774-3.2-.494-.892Z" transform="translate(-81.05 -73.715)" fill="#e71d2e"/>
          <path id="Path_552" data-name="Path 552" d="M77.658,25.8a3.981,3.981,0,0,0-.1-4.113s-1.185-1.973-4.864-1.973h-9.8l8.9,16.061s4.63-7.717,5.867-9.975" transform="translate(-51.499 -19.719)" fill="#e71d2e"/>
        </g>
        <g id="Group_3690" data-name="Group 3690" transform="translate(5.364 30.514)">
          <path id="Path_553" data-name="Path 553" d="M40.424,139.262h-.377l.418-2.27h.484l.418,2.27H40.99l-.069-.5h-.427Zm.126-.843h.314l-.154-.975H40.7Z" transform="translate(-40.047 -136.561)" fill="#fff"/>
          <path id="Path_554" data-name="Path 554" d="M45.837,140.788V139.1h.333v.17a.566.566,0,0,1,.428-.2c.186,0,.3.135.3.355v1.368h-.352v-1.311a.112.112,0,0,0-.126-.122.413.413,0,0,0-.226.107v1.327Z" transform="translate(-44.309 -138.087)" fill="#fff"/>
          <path id="Path_555" data-name="Path 555" d="M53.748,138.059H53.3l.5-2.7h.576l.5,2.7h-.449l-.082-.6H53.83Zm.15-1h.374l-.183-1.16h-.007Z" transform="translate(-49.802 -135.357)" fill="#fff"/>
          <path id="Path_556" data-name="Path 556" d="M60.069,139.262v-2.27h.39v1.93h.613v.34Z" transform="translate(-54.786 -136.561)" fill="#fff"/>
          <path id="Path_557" data-name="Path 557" d="M64.7,139.262v-2.27h.39v1.93h.613v.34Z" transform="translate(-58.198 -136.561)" fill="#fff"/>
          <path id="Path_558" data-name="Path 558" d="M69.613,139.262v-2.27H70v2.27Z" transform="translate(-61.811 -136.561)" fill="#fff"/>
          <path id="Path_559" data-name="Path 559" d="M72.723,139.262v-2.27h1.044v.34h-.654v.585h.5v.34h-.5v.666h.7v.34Z" transform="translate(-64.101 -136.561)" fill="#fff"/>
          <path id="Path_560" data-name="Path 560" d="M78.012,136.992h.578c.4,0,.616.22.616.686v.9c0,.465-.214.686-.616.686h-.578Zm.39,1.949h.135c.208,0,.28-.079.28-.318v-.993c0-.239-.072-.318-.28-.318H78.4Z" transform="translate(-67.994 -136.561)" fill="#fff"/>
          <path id="Path_561" data-name="Path 561" d="M86.751,135.357h.464V137.4c0,.2.079.3.247.3s.247-.1.247-.3v-2.039h.464v2.02a.711.711,0,1,1-1.422,0Z" transform="translate(-74.427 -135.357)" fill="#fff"/>
          <path id="Path_562" data-name="Path 562" d="M93.707,139.262v-2.27h.362l.475,1.3h.006v-1.3H94.9v2.27h-.339l-.5-1.418h-.006v1.418Z" transform="translate(-79.548 -136.561)" fill="#fff"/>
          <path id="Path_563" data-name="Path 563" d="M99.866,139.262v-2.27h.39v2.27Z" transform="translate(-84.081 -136.561)" fill="#fff"/>
          <path id="Path_564" data-name="Path 564" d="M103.324,136.992h.384l-.475,2.27h-.39l-.475-2.27h.384l.283,1.575h.006Z" transform="translate(-85.923 -136.561)" fill="#fff"/>
          <path id="Path_565" data-name="Path 565" d="M108.265,139.262v-2.27h1.044v.34h-.654v.585h.5v.34h-.5v.666h.7v.34Z" transform="translate(-90.264 -136.561)" fill="#fff"/>
          <path id="Path_566" data-name="Path 566" d="M113.945,139.262h-.39v-2.27h.547c.437,0,.66.186.66.67,0,.365-.141.512-.273.572l.33,1.028h-.4l-.277-.94a1.8,1.8,0,0,1-.2.01Zm0-1.252h.138c.211,0,.289-.078.289-.349s-.079-.349-.289-.349h-.138Z" transform="translate(-94.158 -136.561)" fill="#fff"/>
          <path id="Path_567" data-name="Path 567" d="M119.942,137.464c-.016-.2-.12-.251-.207-.251-.126,0-.2.082-.2.223,0,.387.792.572.792,1.189a.556.556,0,0,1-.616.582.6.6,0,0,1-.585-.629l.371-.053c.016.23.107.343.233.343a.2.2,0,0,0,.226-.207c0-.449-.792-.569-.792-1.22a.532.532,0,0,1,.6-.566.545.545,0,0,1,.541.55Z" transform="translate(-98.263 -136.473)" fill="#fff"/>
          <path id="Path_568" data-name="Path 568" d="M124.607,139.262h-.377l.418-2.27h.484l.418,2.27h-.377l-.069-.5h-.428Zm.126-.843h.315l-.154-.975h-.006Z" transform="translate(-102.016 -136.561)" fill="#fff"/>
          <path id="Path_569" data-name="Path 569" d="M130.02,139.262v-2.27h.39v1.93h.613v.34Z" transform="translate(-106.279 -136.561)" fill="#fff"/>
          <path id="Path_570" data-name="Path 570" d="M138.847,137.662v-.176c0-.192-.088-.273-.189-.273-.157,0-.207.082-.207.251v1.15c0,.17.05.251.207.251.141,0,.189-.082.189-.229v-.274h.39v.261a.588.588,0,0,1-1.176,0v-1.169a.545.545,0,0,1,.6-.582.563.563,0,0,1,.579.623v.167Z" transform="translate(-112.198 -136.473)" fill="#fff"/>
          <path id="Path_571" data-name="Path 571" d="M143.875,139.694c0-.371.144-.629.547-.629s.547.258.547.629v.5c0,.371-.145.629-.547.629s-.547-.258-.547-.629Zm.742-.063c0-.2-.069-.277-.2-.277s-.195.082-.195.277v.622c0,.195.069.277.195.277s.2-.082.2-.277Z" transform="translate(-116.477 -138.087)" fill="#fff"/>
          <path id="Path_572" data-name="Path 572" d="M149.937,140.788v-1.311a.112.112,0,0,0-.123-.122.414.414,0,0,0-.226.107v1.327h-.352V139.1h.333v.17c.148-.126.223-.2.39-.2a.3.3,0,0,1,.308.2.52.52,0,0,1,.393-.2.31.31,0,0,1,.33.355v1.368h-.352v-1.311a.114.114,0,0,0-.126-.122.4.4,0,0,0-.223.107v1.327Z" transform="translate(-120.424 -138.087)" fill="#fff"/>
          <path id="Path_573" data-name="Path 573" d="M157.516,139.1v.176h.006a.42.42,0,0,1,.377-.208c.22,0,.359.164.359.472v.811c0,.308-.138.472-.359.472a.521.521,0,0,1-.365-.176v.679h-.352V139.1Zm.019,1.346a.357.357,0,0,0,.2.088c.094,0,.17-.05.17-.273v-.629c0-.223-.075-.273-.17-.273a.356.356,0,0,0-.2.088Z" transform="translate(-126.274 -138.087)" fill="#fff"/>
          <path id="Path_574" data-name="Path 574" d="M162.259,139.594a.519.519,0,0,1,.566-.529c.327,0,.512.151.512.459v1.085a1.212,1.212,0,0,0,.022.179h-.336c0-.047-.016-.091-.019-.132a.6.6,0,0,1-.412.164.343.343,0,0,1-.358-.381c0-.371.245-.576.752-.767v-.1c0-.141-.056-.217-.173-.217-.16,0-.195.094-.2.239Zm.726.336c-.321.183-.4.3-.4.447,0,.11.056.154.163.154a.309.309,0,0,0,.236-.157Z" transform="translate(-129.992 -138.087)" fill="#fff"/>
          <path id="Path_575" data-name="Path 575" d="M167.763,140.788V139.1h.333v.17a.566.566,0,0,1,.427-.2c.186,0,.3.135.3.355v1.368h-.352v-1.311a.112.112,0,0,0-.126-.122.413.413,0,0,0-.226.107v1.327Z" transform="translate(-134.062 -138.087)" fill="#fff"/>
          <path id="Path_576" data-name="Path 576" d="M173.333,139.185h.355L173.245,141c-.075.308-.217.406-.481.406h-.148v-.289h.085c.176,0,.233-.094.233-.273a.876.876,0,0,0-.037-.223l-.368-1.437h.359l.226,1.082h.007Z" transform="translate(-137.57 -138.175)" fill="#fff"/>
          <g id="Group_3689" data-name="Group 3689" transform="translate(24.545 0.333)">
            <path id="Path_577" data-name="Path 577" d="M133.064,136.9a.268.268,0,1,1,.269.275A.26.26,0,0,1,133.064,136.9Zm.482,0a.215.215,0,1,0-.214.225A.209.209,0,0,0,133.546,136.9Zm-.143.15-.06-.122h-.058v.122h-.056v-.311h.1c.077,0,.124.026.124.092a.084.084,0,0,1-.059.082l.071.137Zm-.07-.169c.037,0,.066-.01.066-.049s-.032-.045-.065-.045h-.05v.094Z" transform="translate(-133.064 -136.62)" fill="#fff"/>
          </g>
        </g>
      </g>
    </g>
  </g>
</svg>
